<?xml version="1.0" encoding="UTF-8" standalone="no"?>
<svg
   xmlns:dc="http://purl.org/dc/elements/1.1/"
   xmlns:cc="http://creativecommons.org/ns#"
   xmlns:rdf="http://www.w3.org/1999/02/22-rdf-syntax-ns#"
   xmlns:svg="http://www.w3.org/2000/svg"
   xmlns="http://www.w3.org/2000/svg"
   xmlns:xlink="http://www.w3.org/1999/xlink"
   xmlns:sodipodi="http://sodipodi.sourceforge.net/DTD/sodipodi-0.dtd"
   xmlns:inkscape="http://www.inkscape.org/namespaces/inkscape"
   width="210mm"
   height="297mm"
   viewBox="0 0 210 297"
   version="1.1"
   id="svg8"
   inkscape:version="1.0.2-2 (e86c870879, 2021-01-15)"
   sodipodi:docname="pathsvg.svg">
  <defs
     id="defs2">
    <linearGradient
       inkscape:collect="always"
       id="linearGradient853">
      <stop
         style="stop-color:#0000ff;stop-opacity:1"
         offset="0"
         id="stop849" />
      <stop
         style="stop-color:#00ff00;stop-opacity:1"
         offset="1"
         id="stop851" />
    </linearGradient>
    <linearGradient
       inkscape:collect="always"
       xlink:href="#linearGradient853"
       id="linearGradient881"
       x1="144.98732"
       y1="295.05334"
       x2="159.5692"
       y2="155.60211"
       gradientUnits="userSpaceOnUse"
       gradientTransform="matrix(1.0905344,0,0,1.0905344,-55.356376,-105.75848)" />
  </defs>
  <sodipodi:namedview
     id="base"
     pagecolor="#ffffff"
     bordercolor="#666666"
     borderopacity="1.0"
     inkscape:pageopacity="0.0"
     inkscape:pageshadow="2"
     inkscape:zoom="0.7"
     inkscape:cx="461.98181"
     inkscape:cy="387.66822"
     inkscape:document-units="mm"
     inkscape:current-layer="layer1"
     inkscape:document-rotation="0"
     showgrid="false"
     inkscape:window-width="1920"
     inkscape:window-height="1027"
     inkscape:window-x="-8"
     inkscape:window-y="-8"
     inkscape:window-maximized="1" />
  <metadata
     id="metadata5">
    <rdf:RDF>
      <cc:Work
         rdf:about="">
        <dc:format>image/svg+xml</dc:format>
        <dc:type
           rdf:resource="http://purl.org/dc/dcmitype/StillImage" />
        <dc:title></dc:title>
      </cc:Work>
    </rdf:RDF>
  </metadata>
  <g
     inkscape:label="Layer 1"
     inkscape:groupmode="layer"
     id="layer1">
    <path
       style="fill:url(#linearGradient881);fill-opacity:1;stroke-width:0.288537"
       d="m 96.670701,201.0207 c -14.99519,-2.52479 -28.11004,-12.22446 -35.15761,-26.00238 -5.53726,-10.82525 -7.10467,-21.7381 -4.70986,-32.7915 0.84599,-3.90478 2.04532,-7.14466 4.18287,-11.29978 3.23006,-6.27878 6.71579,-10.7071 16.12554,-20.48613 7.17993,-7.4617 10.37697,-11.056261 12.62161,-14.191021 5.67126,-7.92018 7.53426,-15.36904 6.08436,-24.32709 -0.46609,-2.87963 -0.46369,-2.98954 0.0858,-3.93456 0.38233,-0.65755 0.94932,-1.10648 1.75196,-1.38716 1.12868,-0.39469 1.28064,-0.37506 3.107499,0.40137 6.57208,2.79317 13.93764,9.04997 18.21189,15.47041 4.74185,7.1228 6.9572,14.40453 7.24501,23.813911 0.14311,4.67869 -0.21956,11.1878 -0.69193,12.41881 -0.31631,0.82427 0.53835,0.32515 2.35804,-1.37707 2.62121,-2.45202 3.92514,-5.1616 4.90765,-10.19816 0.40164,-2.05885 0.9128,-3.92593 1.13595,-4.14907 0.47852,-0.47852 1.63166,-0.26669 2.32557,0.42723 1.12869,1.12868 5.36271,7.80613 7.84375,12.37034 9.03528,16.62155 12.42889,32.60941 9.75186,45.94244 -3.9472,19.65899 -19.23842,35.07496 -38.69969,39.01543 -3.91768,0.79324 -5.20793,0.7511 -2.40725,-0.0786 10.07905,-2.98602 17.47894,-11.83201 18.74735,-22.41094 1.3958,-11.64153 -5.60915,-29.59104 -17.56622,-45.01179 -2.30593,-2.9739 -8.08115,-8.86599 -9.75077,-9.94811 -1.45487,-0.94292 -3.00741,-1.02788 -4.09067,-0.22386 -1.309159,0.97167 -1.487399,1.66014 -1.290489,4.98495 0.13636,2.30231 0.0605,3.62754 -0.31386,5.4822 -0.9517,4.71517 -2.63734,7.84766 -8.32219,15.46544 -5.78284,7.74905 -7.26732,10.0891 -8.88183,14.00073 -4.61153,11.1728 -2.63056,22.89195 5.2118,30.83209 3.6993,3.74541 8.2181,6.25641 13.17064,7.31867 2.810309,0.60276 0.852569,0.51968 -2.98675,-0.12676 z"
       id="path871"
       sodipodi:nodetypes="sssssssssssssssssssscssssscssssss"
       inkscape:export-xdpi="2048"
       inkscape:export-ydpi="2048" />
  </g>
</svg>
